<svg xmlns="http://www.w3.org/2000/svg" width="107" height="33" viewBox="0 0 107 33" fill="none"><path d="M106.826 3.91473V0H62.9217C60.9192 0 58.9976 0.796005 57.5828 2.21389C56.165 3.62866 55.3721 5.55027 55.3721 7.55272V33H77.1845V29.0853H59.2868V19.0171H69.7592V15.1023H59.2868V7.55272C59.2868 5.54405 60.913 3.91473 62.9217 3.91473H84.4542V11.1876H80.5395C78.6117 11.1876 76.7616 11.9525 75.3966 13.3175C74.0315 14.6826 73.2697 16.5295 73.2697 18.4574C73.2697 20.3852 74.0347 22.2353 75.3997 23.6003C76.7647 24.9653 78.6117 25.7302 80.5395 25.7302H84.4542V33H88.369V15.1023H92.2837C94.1369 15.1023 95.6418 16.6042 95.6418 18.4574C95.6418 20.3106 94.1369 21.8124 92.2837 21.8124H91.724V25.7085C93.6954 25.8577 95.6449 25.2016 97.1219 23.8864C98.5958 22.5711 99.4726 20.7117 99.5503 18.7372C99.625 16.7627 98.8943 14.8411 97.523 13.417C96.1518 11.9929 94.2613 11.1876 92.2837 11.1876H88.369V3.91473H106.826ZM84.4542 21.8124H80.5395C78.6863 21.8124 77.1845 20.3106 77.1845 18.4574C77.1845 16.6042 78.6863 15.1023 80.5395 15.1023H84.4542V21.8124Z" fill="white"></path><path d="M50.453 16.4674C49.116 14.2504 47.0358 12.5806 44.5856 11.7566C46.1372 9.44012 46.2864 6.45821 44.9743 3.99557C43.6621 1.53604 41.1 0 38.314 0H0V3.91473H17.8977V11.7473C17.8977 13.6005 16.3958 15.1023 14.5426 15.1023H11.1876V12.307H7.27287V25.7302C7.27287 27.6581 8.03778 29.505 9.3997 30.8701C10.7647 32.232 12.6148 33 14.5426 33H21.8124V29.0853H14.5426C12.6894 29.0853 11.1876 27.5834 11.1876 25.7302V19.0171H14.5426C17.254 19.0171 19.7415 17.509 20.9915 15.1023H29.6419V33H41.1093C43.6963 33 46.1994 32.0796 48.1707 30.4037C50.1421 28.7277 51.4543 26.4081 51.8709 23.8522C52.2907 21.2994 51.787 18.6812 50.453 16.4674ZM41.1093 29.0853H33.5597V15.1023H41.1093C42.9625 15.1023 44.7411 15.8393 46.0532 17.1483C47.3623 18.4605 48.0992 20.239 48.0992 22.0922C48.0992 23.9454 47.3623 25.7271 46.0532 27.0362C44.7442 28.3452 42.9625 29.0853 41.1093 29.0853ZM38.314 11.1876H33.5597V3.91473H38.314C40.3195 3.91473 41.9488 5.54405 41.9488 7.55272C41.9488 9.56139 40.3195 11.1876 38.314 11.1876ZM29.6419 3.91473V11.1876H21.8124V3.91473H29.6419Z" fill="white"></path></svg>